<?xml version="1.0" encoding="UTF-8" standalone="no"?>
<!-- Created with Inkscape (http://www.inkscape.org/) -->

<svg
   xmlns:dc="http://purl.org/dc/elements/1.1/"
   xmlns:cc="http://creativecommons.org/ns#"
   xmlns:rdf="http://www.w3.org/1999/02/22-rdf-syntax-ns#"
   xmlns:svg="http://www.w3.org/2000/svg"
   xmlns="http://www.w3.org/2000/svg"
   xmlns:sodipodi="http://sodipodi.sourceforge.net/DTD/sodipodi-0.dtd"
   xmlns:inkscape="http://www.inkscape.org/namespaces/inkscape"
   width="210mm"
   height="297mm"
   viewBox="0 0 210 297"
   version="1.1"
   id="svg8"
   inkscape:version="0.92.3 (2405546, 2018-03-11)"
   sodipodi:docname="logo.svg">
  <defs
     id="defs2">
    <clipPath
       id="clipPath833"
       clipPathUnits="userSpaceOnUse">
      <path
         inkscape:connector-curvature="0"
         id="path831"
         d="M 0,595.28 H 841.89 V 0 H 0 Z" />
    </clipPath>
    <clipPath
       id="clipPath908"
       clipPathUnits="userSpaceOnUse">
      <path
         inkscape:connector-curvature="0"
         id="path906"
         d="M 0,595.28 H 841.89 V 0 H 0 Z" />
    </clipPath>
    <clipPath
       id="clipPath908-0"
       clipPathUnits="userSpaceOnUse">
      <path
         inkscape:connector-curvature="0"
         id="path906-7"
         d="M 0,595.28 H 841.89 V 0 H 0 Z" />
    </clipPath>
  </defs>
  <sodipodi:namedview
     id="base"
     pagecolor="#ffffff"
     bordercolor="#666666"
     borderopacity="1.0"
     inkscape:pageopacity="0.0"
     inkscape:pageshadow="2"
     inkscape:zoom="11.313709"
     inkscape:cx="419.47119"
     inkscape:cy="789.90213"
     inkscape:document-units="mm"
     inkscape:current-layer="g4909"
     showgrid="false"
     inkscape:window-width="3000"
     inkscape:window-height="1875"
     inkscape:window-x="-13"
     inkscape:window-y="-13"
     inkscape:window-maximized="1" />
  <metadata
     id="metadata5">
    <rdf:RDF>
      <cc:Work
         rdf:about="">
        <dc:format>image/svg+xml</dc:format>
        <dc:type
           rdf:resource="http://purl.org/dc/dcmitype/StillImage" />
        <dc:title></dc:title>
      </cc:Work>
    </rdf:RDF>
  </metadata>
  <g
     id="g4909"
     inkscape:groupmode="layer"
     inkscape:label="Background"
     style="display:inline">
    <rect
       y="71.984238"
       x="72.745827"
       height="53.082573"
       width="86.975082"
       id="rect4823"
       style="opacity:1;fill:#393782;fill-opacity:1;stroke-width:0.18614918"
       inkscape:export-xdpi="191.39995"
       inkscape:export-ydpi="191.39995" />
    <rect
       inkscape:export-ydpi="191.39995"
       inkscape:export-xdpi="191.39995"
       style="opacity:1;fill:#393782;fill-opacity:0.00294985;stroke-width:0.08663537"
       id="rect4987"
       width="31.639593"
       height="31.607069"
       x="99.97123"
       y="74.369621" />
  </g>
  <g
     inkscape:label="Outline"
     inkscape:groupmode="layer"
     id="layer1"
     style="display:inline">
    <g
       transform="matrix(0.35277777,0,0,-0.35277777,-32.685264,202.12465)"
       inkscape:label="jinaga logo final"
       id="g900"
       style="fill:#ffffff;fill-opacity:1">
      <g
         id="g902"
         style="fill:#ffffff;fill-opacity:1">
        <g
           clip-path="url(#clipPath908-0)"
           id="g904"
           style="fill:#ffffff;fill-opacity:1">
          <g
             transform="translate(333.1035,238.2617)"
             id="g910"
             style="fill:#ffffff;fill-opacity:1">
            <path
               inkscape:connector-curvature="0"
               id="path912"
               style="fill:#ffffff;fill-opacity:1;fill-rule:nonzero;stroke:none"
               d="m 0,0 c 0,-6.654 -4.044,-9.964 -10.44,-9.964 -6.397,0 -11.138,3.125 -11.175,9.854 h 5.698 c 0.037,-4.007 2.39,-5.33 5.44,-5.33 2.941,0 5.109,1.58 5.109,5.036 v 13.576 l -3.445,3.259 H 0 Z" />
          </g>
          <path
             inkscape:connector-curvature="0"
             id="path914"
             style="fill:#ffffff;fill-opacity:1;fill-rule:nonzero;stroke:none"
             d="m 355.07,228.961 h -5.366 v 25.731 h 5.366 z" />
          <g
             transform="translate(394.1367,228.9609)"
             id="g916"
             style="fill:#ffffff;fill-opacity:1">
            <path
               inkscape:connector-curvature="0"
               id="path918"
               style="fill:#ffffff;fill-opacity:1;fill-rule:nonzero;stroke:none"
               d="m 0,0 c -4.005,8.603 -11.248,16.064 -15.733,18.858 h -0.551 V 0 h -5.257 v 25.731 h 5.147 C -9.705,22.019 -1.618,12.755 0.259,8.528 H 0.772 V 25.731 H 6.028 V 0 Z" />
          </g>
          <g
             transform="translate(423.1953,238.3711)"
             id="g920"
             style="fill:#ffffff;fill-opacity:1">
            <path
               inkscape:connector-curvature="0"
               id="path922"
               style="fill:#ffffff;fill-opacity:1;fill-rule:nonzero;stroke:none"
               d="M 0,0 H 14.229 C 12.427,5.109 9.89,9.595 7.646,11.873 H 6.839 C 4.559,9.595 1.877,5.146 0,0 M 9.89,16.321 C 15.367,11.359 20.955,0.257 21.909,-9.41 h -5.513 c -0.184,1.802 -0.552,3.603 -0.992,5.403 H -1.248 c -0.441,-1.8 -0.81,-3.601 -0.992,-5.403 h -5.515 c 0.991,9.667 6.91,20.769 12.351,25.731 z" />
          </g>
          <g
             transform="translate(482.1064,232.1582)"
             id="g924"
             style="fill:#ffffff;fill-opacity:1">
            <path
               inkscape:connector-curvature="0"
               id="path926"
               style="fill:#ffffff;fill-opacity:1;fill-rule:nonzero;stroke:none"
               d="m 0,0 c -2.133,-2.353 -6.176,-3.86 -10.33,-3.86 -8.197,0 -13.64,5.662 -13.64,13.492 0,7.794 5.368,13.563 14.559,13.563 7.903,0 11.946,-4.261 13.307,-8.967 h -5.661 c -1.031,2.425 -3.272,4.446 -7.464,4.446 -5.844,0 -9.226,-3.785 -9.226,-8.969 0,-5.22 3.42,-9.042 9.079,-9.042 3.823,0 7.243,1.727 8.566,4.264 v 1.422 h -7.903 v 4.043 H 4.411 V -3.197 H 0.623 Z" />
          </g>
          <g
             transform="translate(508.4072,238.3711)"
             id="g928"
             style="fill:#ffffff;fill-opacity:1">
            <path
               inkscape:connector-curvature="0"
               id="path930"
               style="fill:#ffffff;fill-opacity:1;fill-rule:nonzero;stroke:none"
               d="m 0,0 h 14.226 c -1.8,5.109 -4.337,9.595 -6.58,11.873 H 6.838 C 4.558,9.595 1.874,5.146 0,0 M 9.889,16.321 C 15.366,11.359 20.954,0.257 21.909,-9.41 h -5.513 c -0.184,1.802 -0.551,3.603 -0.995,5.403 h -16.65 c -0.441,-1.8 -0.81,-3.601 -0.994,-5.403 h -5.513 c 0.991,9.667 6.911,20.769 12.352,25.731 z" />
          </g>
          <g
             transform="translate(437.7354,327.8862)"
             id="g932"
             style="fill:#ffffff;fill-opacity:1">
            <path
               style="fill:#ffffff;fill-opacity:1;fill-rule:nonzero;stroke:none;stroke-width:1.33333325"
               d="m 416.46875,284.36914 c -2.03199,-0.0419 -4.09435,0.12994 -6.12891,0.35547 -13.83539,0.7078 -29.76239,8.91648 -30.97851,24.23242 -1.26969,21.58579 12.20604,40.46155 23.75195,57.48242 0.3919,0.43141 0.77677,0.88233 1.1543,1.34961 -1.55406,-0.71986 -2.37194,0.0449 -1.07031,4.0293 5.37236,12.31433 16.58038,24.76418 30.89257,25.8125 5.67279,0.2715 11.23045,-1.73887 15.90039,-4.86133 15.49333,-11.47078 24.31283,-28.98466 31.73829,-46.53906 7.75607,-4.29023 10.50654,-13.36224 13.09765,-21.2832 4.2171,-12.35251 -0.74252,-27.42722 -13.08008,-32.90235 -17.62338,-8.08661 -37.30245,-7.41374 -56.38476,-5.42773 -2.76915,-1.62015 -5.79621,-2.18422 -8.89258,-2.24805 z"
               transform="matrix(0.75000002,0,0,-0.75000002,-345.08426,245.06558)"
               id="path934"
               inkscape:connector-curvature="0"
               sodipodi:nodetypes="ccccccccccccc" />
          </g>
          <g
             transform="translate(415.4419,305.1563)"
             id="g936"
             style="fill:#ffffff;fill-opacity:1" />
          <g
             transform="translate(406.896,336.7788)"
             id="g940"
             style="fill:#ffffff;fill-opacity:1" />
        </g>
      </g>
    </g>
    <circle
       style="opacity:1;fill:#ffffff;fill-opacity:1;stroke-width:0.26458332"
       id="path4979"
       cx="80.85675"
       cy="116.75978"
       r="5.8465209" />
    <circle
       r="5.8465209"
       cy="116.76136"
       cx="151.6387"
       id="circle4981"
       style="opacity:1;fill:#ffffff;fill-opacity:1;stroke-width:0.26458332" />
    <rect
       style="opacity:1;fill:#ffffff;fill-opacity:1;stroke-width:0.26468271"
       id="rect4983"
       width="70.692566"
       height="11.693308"
       x="80.916077"
       y="110.91332" />
  </g>
  <g
     id="g4865"
     inkscape:groupmode="layer"
     inkscape:label="Foreground"
     style="display:inline">
    <g
       id="g4863"
       inkscape:label="jinaga logo final"
       transform="matrix(0.35277777,0,0,-0.35277777,-32.685264,202.12465)">
      <g
         id="g4861">
        <g
           id="g4859"
           clip-path="url(#clipPath908-0)">
          <g
             id="g4827"
             transform="translate(333.1035,238.2617)">
            <path
               d="m 0,0 c 0,-6.654 -4.044,-9.964 -10.44,-9.964 -6.397,0 -11.138,3.125 -11.175,9.854 h 5.698 c 0.037,-4.007 2.39,-5.33 5.44,-5.33 2.941,0 5.109,1.58 5.109,5.036 v 13.576 l -3.445,3.259 H 0 Z"
               style="fill:#3d505a;fill-opacity:1;fill-rule:nonzero;stroke:none"
               id="path4825"
               inkscape:connector-curvature="0" />
          </g>
          <path
             d="m 355.07,228.961 h -5.366 v 25.731 h 5.366 z"
             style="fill:#3d505a;fill-opacity:1;fill-rule:nonzero;stroke:none"
             id="path4829"
             inkscape:connector-curvature="0" />
          <g
             id="g4833"
             transform="translate(394.1367,228.9609)">
            <path
               d="m 0,0 c -4.005,8.603 -11.248,16.064 -15.733,18.858 h -0.551 V 0 h -5.257 v 25.731 h 5.147 C -9.705,22.019 -1.618,12.755 0.259,8.528 H 0.772 V 25.731 H 6.028 V 0 Z"
               style="fill:#3d505a;fill-opacity:1;fill-rule:nonzero;stroke:none"
               id="path4831"
               inkscape:connector-curvature="0" />
          </g>
          <g
             id="g4837"
             transform="translate(423.1953,238.3711)">
            <path
               d="M 0,0 H 14.229 C 12.427,5.109 9.89,9.595 7.646,11.873 H 6.839 C 4.559,9.595 1.877,5.146 0,0 M 9.89,16.321 C 15.367,11.359 20.955,0.257 21.909,-9.41 h -5.513 c -0.184,1.802 -0.552,3.603 -0.992,5.403 H -1.248 c -0.441,-1.8 -0.81,-3.601 -0.992,-5.403 h -5.515 c 0.991,9.667 6.91,20.769 12.351,25.731 z"
               style="fill:#3d505a;fill-opacity:1;fill-rule:nonzero;stroke:none"
               id="path4835"
               inkscape:connector-curvature="0" />
          </g>
          <g
             id="g4841"
             transform="translate(482.1064,232.1582)">
            <path
               d="m 0,0 c -2.133,-2.353 -6.176,-3.86 -10.33,-3.86 -8.197,0 -13.64,5.662 -13.64,13.492 0,7.794 5.368,13.563 14.559,13.563 7.903,0 11.946,-4.261 13.307,-8.967 h -5.661 c -1.031,2.425 -3.272,4.446 -7.464,4.446 -5.844,0 -9.226,-3.785 -9.226,-8.969 0,-5.22 3.42,-9.042 9.079,-9.042 3.823,0 7.243,1.727 8.566,4.264 v 1.422 h -7.903 v 4.043 H 4.411 V -3.197 H 0.623 Z"
               style="fill:#3d505a;fill-opacity:1;fill-rule:nonzero;stroke:none"
               id="path4839"
               inkscape:connector-curvature="0" />
          </g>
          <g
             id="g4845"
             transform="translate(508.4072,238.3711)">
            <path
               d="m 0,0 h 14.226 c -1.8,5.109 -4.337,9.595 -6.58,11.873 H 6.838 C 4.558,9.595 1.874,5.146 0,0 M 9.889,16.321 C 15.366,11.359 20.954,0.257 21.909,-9.41 h -5.513 c -0.184,1.802 -0.551,3.603 -0.995,5.403 h -16.65 c -0.441,-1.8 -0.81,-3.601 -0.994,-5.403 h -5.513 c 0.991,9.667 6.911,20.769 12.352,25.731 z"
               style="fill:#3d505a;fill-opacity:1;fill-rule:nonzero;stroke:none"
               id="path4843"
               inkscape:connector-curvature="0" />
          </g>
          <g
             id="g4849"
             transform="translate(437.7354,327.8862)">
            <path
               d="m 0,0 c -4.161,-15.369 -16.842,-68.049 -40.785,-33.848 0,0 28.126,-55.985 60.471,33.321 1.826,5.048 -1.892,10.473 -7.098,11.763 0,0 -12.733,3.619 -28.631,-2.609 0,0 18.531,0.562 16.043,-8.627"
               style="fill:#00bff3;fill-opacity:1;fill-rule:nonzero;stroke:none"
               id="path4847"
               inkscape:connector-curvature="0" />
          </g>
          <g
             id="g4853"
             transform="translate(415.4419,305.1563)">
            <path
               d="m 0,0 c -10.986,11.526 -49.476,49.669 -7.817,52.428 0,0 -62.459,4.944 -2.831,-68.989 3.371,-4.176 9.941,-3.809 13.738,-0.022 0,0 9.692,9.016 12.602,25.842 C 15.692,9.259 6.576,-6.887 0,0"
               style="fill:#00a0df;fill-opacity:1;fill-rule:nonzero;stroke:none"
               id="path4851"
               inkscape:connector-curvature="0" />
          </g>
          <g
             id="g4857"
             transform="translate(406.896,336.7788)">
            <path
               d="m 0,0 c 15.483,3.737 67.771,17.935 49.288,-19.501 0,0 35.57,51.576 -58.286,37.016 -5.302,-0.825 -8.273,-6.693 -6.904,-11.877 0,0 2.949,-12.905 16.051,-23.853 0,0 -9.401,15.983 -0.149,18.215"
               style="fill:#00ade9;fill-opacity:1;fill-rule:nonzero;stroke:none"
               id="path4855"
               inkscape:connector-curvature="0" />
          </g>
        </g>
      </g>
    </g>
  </g>
</svg>
